<svg width="16" height="16" viewBox="0 0 16 16" fill="none" xmlns="http://www.w3.org/2000/svg">
<g id="logo-youtube">
<path id="Vector" d="M15.8961 4.64969C15.8961 3.24344 14.8617 2.11219 13.5836 2.11219C11.8523 2.03125 10.0867 2 8.28235 2H7.71985C5.91985 2 4.1511 2.03125 2.41985 2.1125C1.14485 2.1125 0.110473 3.25 0.110473 4.65625C0.0323479 5.76844 -0.000777068 6.88094 0.00109793 7.99344C-0.00202707 9.10594 0.0333896 10.2195 0.107348 11.3341C0.107348 12.7403 1.14172 13.8809 2.41672 13.8809C4.23547 13.9653 6.1011 14.0028 7.99797 13.9997C9.89797 14.0059 11.7584 13.9664 13.5792 13.8809C14.8573 13.8809 15.8917 12.7403 15.8917 11.3341C15.9667 10.2184 16.0011 9.10594 15.998 7.99031C16.0051 6.87781 15.9711 5.76427 15.8961 4.64969ZM6.46985 11.0591V4.91844L11.0011 7.98719L6.46985 11.0591Z" fill="white"/>
</g>
</svg>
